<svg width="17" height="14" viewBox="0 0 17 14" fill="none" xmlns="http://www.w3.org/2000/svg">
<g id="Heart">
<path id="Icon" fill-rule="evenodd" clip-rule="evenodd" d="M0.412109 4.77825C0.412109 2.36936 2.52543 0.514587 5.006 0.514587C6.28469 0.514587 7.40985 1.11415 8.21727 1.88993C9.02469 1.11415 10.1499 0.514587 11.4285 0.514587C13.9091 0.514587 16.0224 2.36936 16.0224 4.77825C16.0224 6.42837 15.3187 7.87948 14.3438 9.1061C13.3706 10.3306 12.0975 11.3698 10.8786 12.2143C10.413 12.5368 9.942 12.8343 9.51094 13.0539C9.10617 13.26 8.64075 13.4489 8.21727 13.4489C7.79379 13.4489 7.32837 13.26 6.9236 13.0539C6.49253 12.8343 6.02153 12.5368 5.55596 12.2143C4.33703 11.3698 3.06397 10.3306 2.09073 9.1061C1.11581 7.87949 0.412109 6.42837 0.412109 4.77825ZM5.006 1.85261C3.15128 1.85261 1.75014 3.2166 1.75014 4.77825C1.75014 6.0302 2.28159 7.1958 3.1382 8.27356C3.99649 9.35343 5.15133 10.3062 6.31793 11.1144C6.75937 11.4202 7.17516 11.6804 7.53082 11.8616C7.91278 12.0561 8.13401 12.1108 8.21727 12.1108C8.30053 12.1108 8.52176 12.0561 8.90372 11.8616C9.25938 11.6804 9.67517 11.4202 10.1166 11.1144C11.2832 10.3062 12.438 9.35343 13.2963 8.27356C14.1529 7.1958 14.6844 6.0302 14.6844 4.77825C14.6844 3.2166 13.2833 1.85261 11.4285 1.85261C10.3633 1.85261 9.36868 2.489 8.74763 3.29672C8.621 3.46142 8.42503 3.55794 8.21727 3.55794C8.00951 3.55794 7.81354 3.46142 7.68691 3.29672C7.06586 2.489 6.07121 1.85261 5.006 1.85261Z" fill="#323142"/>
</g>
</svg>
