<svg width="32" height="29" viewBox="0 0 32 29" fill="none" xmlns="http://www.w3.org/2000/svg">
<g id="Add">
<rect id="Base" x="0.777344" y="0.441956" width="31.1679" height="28.2459" rx="6.35046" fill="#323142"/>
<g id="+">
<mask id="path-2-inside-1_1_11010" fill="white">
<path d="M21.3121 15.4313H16.8034V20.0035H15.0042V15.4313H10.5166V13.8014H15.0042V9.20801H16.8034V13.8014H21.3121V15.4313Z"/>
</mask>
<path d="M21.3121 15.4313H16.8034V20.0035H15.0042V15.4313H10.5166V13.8014H15.0042V9.20801H16.8034V13.8014H21.3121V15.4313Z" fill="black"/>
<path d="M21.3121 15.4313V18.3533H24.2341V15.4313H21.3121ZM16.8034 15.4313V12.5093H13.8814V15.4313H16.8034ZM16.8034 20.0035V22.9255H19.7254V20.0035H16.8034ZM15.0042 20.0035H12.0822V22.9255H15.0042V20.0035ZM15.0042 15.4313H17.9261V12.5093H15.0042V15.4313ZM10.5166 15.4313H7.59461V18.3533H10.5166V15.4313ZM10.5166 13.8014V10.8794H7.59461V13.8014H10.5166ZM15.0042 13.8014V16.7234H17.9261V13.8014H15.0042ZM15.0042 9.20801V6.28602H12.0822V9.20801H15.0042ZM16.8034 9.20801H19.7254V6.28602H16.8034V9.20801ZM16.8034 13.8014H13.8814V16.7234H16.8034V13.8014ZM21.3121 13.8014H24.2341V10.8794H21.3121V13.8014ZM21.3121 12.5093H16.8034V18.3533H21.3121V12.5093ZM13.8814 15.4313V20.0035H19.7254V15.4313H13.8814ZM16.8034 17.0815H15.0042V22.9255H16.8034V17.0815ZM17.9261 20.0035V15.4313H12.0822V20.0035H17.9261ZM15.0042 12.5093H10.5166V18.3533H15.0042V12.5093ZM13.4386 15.4313V13.8014H7.59461V15.4313H13.4386ZM10.5166 16.7234H15.0042V10.8794H10.5166V16.7234ZM17.9261 13.8014V9.20801H12.0822V13.8014H17.9261ZM15.0042 12.13H16.8034V6.28602H15.0042V12.13ZM13.8814 9.20801V13.8014H19.7254V9.20801H13.8814ZM16.8034 16.7234H21.3121V10.8794H16.8034V16.7234ZM18.3901 13.8014V15.4313H24.2341V13.8014H18.3901Z" fill="white" mask="url(#path-2-inside-1_1_11010)"/>
</g>
</g>
</svg>
